<?xml version="1.0" standalone="no"?>
<!DOCTYPE svg PUBLIC "-//W3C//DTD SVG 20010904//EN"
 "http://www.w3.org/TR/2001/REC-SVG-20010904/DTD/svg10.dtd">
<svg version="1.0" xmlns="http://www.w3.org/2000/svg"
 width="1024.000000pt" height="1024.000000pt" viewBox="0 0 1024.000000 1024.000000"
 preserveAspectRatio="xMidYMid meet">
<metadata>
Created by potrace 1.16, written by Peter Selinger 2001-2019
</metadata>
<g transform="translate(0.000000,1024.000000) scale(0.100000,-0.100000)"
fill="#000000" stroke="none">
<path d="M0 9895 c0 -254 3 -350 12 -365 10 -15 10 -26 0 -53 -7 -18 -12 -65
-12 -104 l0 -70 137 -37 c76 -21 163 -45 193 -53 30 -9 61 -17 68 -19 13 -4
18 -114 5 -114 -5 1 -35 7 -67 15 -61 14 -81 12 -70 -8 3 -7 -2 -3 -10 7 -9
11 -16 16 -16 10 0 -5 -5 -1 -11 9 -10 18 -59 24 -59 8 0 -25 -43 -21 -89 8
-86 55 -81 69 -81 -252 l0 -283 30 -29 c38 -36 38 -48 0 -62 l-30 -11 0 -330
c0 -322 1 -331 20 -337 23 -7 26 -21 6 -28 -9 -4 -17 1 -19 11 -3 9 -5 -88 -6
-215 -1 -178 2 -233 11 -233 30 0 148 -53 148 -66 0 -19 -26 -18 -99 5 l-61
19 0 -36 c0 -22 9 -47 25 -68 30 -40 33 -69 3 -34 l-21 25 8 -24 c5 -16 4 -21
-4 -17 -8 5 -11 -56 -11 -217 l0 -224 24 4 c19 4 24 0 30 -27 10 -53 7 -208
-5 -215 -16 -10 -24 4 -11 17 14 14 16 32 3 24 -5 -3 -11 32 -12 79 -3 49 -9
89 -17 97 -9 10 -12 -11 -12 -104 0 -115 0 -116 25 -122 14 -4 25 -11 25 -16
0 -6 -11 -16 -25 -22 -39 -18 -30 -28 25 -28 48 0 50 1 44 24 -4 18 -1 25 16
29 18 5 20 2 14 -16 -8 -24 -12 -49 -13 -84 -1 -21 -6 -23 -56 -23 l-55 0 0
-105 0 -105 76 0 c61 0 79 -4 90 -17 17 -23 17 -33 1 -33 -7 0 -30 -9 -51 -21
-32 -17 -44 -19 -63 -10 -40 18 -53 14 -53 -19 0 -26 4 -30 28 -31 l27 -1 -28
-11 c-20 -8 -27 -18 -27 -38 0 -23 5 -27 38 -33 20 -3 55 -6 77 -7 22 0 49 -4
59 -8 19 -7 19 -8 -2 -13 -14 -4 -20 -2 -16 4 5 7 -3 8 -22 3 -16 -4 -53 -9
-82 -12 -50 -5 -52 -6 -52 -34 0 -36 12 -36 56 -3 18 14 40 24 48 21 8 -3 17
-3 20 0 11 11 76 14 76 3 0 -5 9 -10 21 -10 11 0 17 5 14 10 -3 6 3 10 14 10
11 0 23 -4 26 -10 3 -5 22 -9 41 -8 37 1 68 -24 39 -30 -8 -2 -15 -12 -15 -22
0 -16 5 -18 29 -14 23 5 29 2 34 -15 4 -17 1 -21 -18 -21 -13 0 -35 4 -49 10
-15 5 -28 6 -31 0 -3 -5 -73 -8 -155 -7 l-150 2 0 -128 0 -128 48 27 c26 15
56 32 67 39 12 7 72 12 150 14 149 2 247 15 280 37 17 11 46 14 121 11 98 -3
174 7 174 24 0 5 6 9 14 9 8 0 41 20 74 45 l60 45 343 -2 344 -3 -74 -77 c-40
-43 -68 -78 -62 -78 18 0 141 100 141 115 0 10 30 14 128 17 70 2 159 2 198 0
l72 -4 5 -40 c3 -23 1 -49 -6 -59 -9 -15 -7 -23 13 -44 19 -20 22 -29 14 -43
-9 -13 -23 -16 -64 -13 -50 3 -53 2 -47 -18 5 -19 -3 -26 -26 -22 -4 1 -12
-11 -18 -26 -8 -22 -12 -25 -20 -13 -9 13 -10 13 -6 0 4 -16 40 -18 262 -12
55 1 119 1 142 -1 38 -2 42 -4 37 -22 -5 -17 -4 -18 7 -5 8 8 21 20 29 28 11
10 11 12 1 6 -9 -5 -12 -3 -7 5 4 6 12 9 17 6 5 -3 19 3 31 14 12 12 24 19 26
16 3 -3 -6 -15 -19 -27 -13 -13 -36 -38 -51 -56 -15 -17 -30 -28 -33 -22 -4 6
-99 10 -253 11 -255 1 -355 8 -317 24 34 15 145 107 139 117 -3 4 -84 8 -180
8 -174 0 -175 0 -202 -25 -17 -17 -35 -24 -49 -22 -13 2 -23 0 -23 -4 0 -5 -4
-9 -9 -9 -6 0 -9 12 -8 27 2 26 0 27 -38 24 -55 -4 -64 -14 -55 -57 7 -29 5
-34 -6 -30 -8 3 -14 1 -14 -4 0 -6 -11 -10 -25 -10 -14 0 -25 5 -25 10 0 14
-27 12 -33 -2 -3 -10 -7 -10 -17 -1 -7 6 -20 9 -29 6 -10 -4 -6 3 9 19 14 13
36 37 50 52 l25 29 -76 -5 c-82 -5 -105 -13 -91 -31 5 -7 12 -27 15 -44 6 -33
6 -33 -32 -33 -22 0 -48 -3 -58 -7 -14 -6 -8 -9 22 -14 22 -3 -73 -6 -211 -7
-214 -2 -253 0 -264 13 -11 13 -19 10 -61 -26 l-49 -41 -250 1 -250 2 0 -231
0 -230 59 0 c65 0 85 -12 49 -31 -13 -6 -42 -23 -65 -38 l-42 -26 -1 -352 0
-353 70 0 c54 0 70 -3 70 -14 0 -8 -3 -16 -7 -18 -5 -1 -36 -33 -70 -70 l-63
-66 0 -103 0 -102 315 5 c175 3 318 2 321 -3 11 -19 -9 -45 -251 -308 -22 -24
-48 -52 -58 -63 -10 -10 -15 -23 -12 -28 4 -6 -1 -10 -10 -10 -11 0 -15 -5
-11 -15 3 -8 0 -18 -7 -22 -12 -8 -28 -38 -42 -78 -6 -18 -9 -17 -22 12 -22
44 -50 53 -143 46 l-81 -6 1 -178 c1 -126 5 -179 13 -183 9 -3 8 -5 0 -5 -10
-1 -13 -97 -13 -446 l0 -445 232 2 c218 3 233 2 236 -15 2 -10 0 -26 -4 -35
-4 -9 -8 -20 -8 -24 -1 -9 -17 -32 -71 -103 -22 -29 -47 -63 -55 -75 -8 -12
-27 -40 -43 -61 -15 -21 -27 -42 -27 -47 0 -4 -12 -24 -26 -43 -15 -19 -37
-56 -51 -84 -31 -63 -38 -74 -95 -162 -94 -144 -88 -112 -88 -467 l0 -315 82
4 c46 3 162 7 258 10 235 6 533 23 651 35 53 6 103 8 111 5 39 -15 50 -104 19
-163 -41 -78 -101 -207 -102 -217 0 -5 -6 -17 -14 -25 -7 -8 -27 -44 -45 -80
-17 -36 -38 -77 -46 -92 -8 -14 -14 -29 -14 -32 0 -3 62 -6 139 -6 l138 0 55
117 c31 65 84 183 118 263 35 80 67 150 72 156 5 7 78 14 201 18 449 16 701
27 846 37 198 14 192 18 157 -119 -14 -55 -48 -178 -76 -273 -27 -95 -50 -178
-50 -186 0 -10 22 -13 94 -13 l94 0 16 48 c8 26 47 162 87 302 39 140 76 260
83 267 7 8 100 15 281 22 149 6 311 14 360 16 378 20 477 26 527 31 55 6 58 6
68 -20 7 -19 5 -65 -4 -154 -31 -271 -45 -399 -50 -454 l-5 -58 53 0 53 0 11
118 c7 64 19 199 29 300 9 101 22 190 28 198 8 12 91 17 455 29 245 8 520 17
612 21 139 6 168 5 172 -7 4 -11 36 -584 36 -644 0 -15 16 -16 163 -12 89 3
189 10 222 15 33 6 205 14 381 18 l322 7 6 -21 c7 -21 13 -22 142 -22 74 0
134 1 134 3 0 13 -104 493 -123 565 -26 102 -22 131 23 142 26 7 493 15 845
15 l209 0 33 -90 c18 -49 38 -101 44 -115 6 -14 18 -41 26 -60 8 -19 19 -42
24 -50 6 -8 15 -27 22 -42 13 -31 69 -62 97 -55 11 3 27 -4 38 -17 17 -18 94
-199 117 -273 5 -20 13 -23 57 -23 36 0 49 3 45 13 -29 67 -86 216 -123 323
-43 126 -54 179 -41 201 6 10 386 20 920 25 l207 2 18 -24 c21 -31 149 -267
228 -422 l59 -118 323 0 322 0 0 346 0 347 -162 -7 c-90 -3 -288 -7 -441 -8
l-279 -3 -21 27 c-12 15 -29 36 -37 48 -13 18 -19 20 -40 12 -15 -6 -258 -15
-590 -21 -755 -15 -676 -18 -696 21 -9 18 -30 71 -47 118 -16 47 -41 114 -54
150 -13 36 -27 73 -30 82 -3 9 -28 68 -55 130 -49 109 -59 151 -41 168 14 13
1125 31 1141 18 15 -13 43 -60 197 -333 122 -215 113 -200 121 -192 4 3 -8 34
-26 69 -65 125 -112 213 -120 223 -4 6 -31 55 -59 109 -47 92 -50 101 -37 121
15 22 19 23 323 29 169 3 418 7 553 9 l244 2 76 -105 75 -105 3 197 c2 170 0
200 -14 215 -28 32 -105 136 -157 213 -28 41 -53 77 -57 80 -13 10 -170 233
-170 241 0 7 32 29 43 29 3 0 41 -51 85 -112 44 -62 93 -129 109 -150 15 -20
37 -49 48 -64 11 -15 40 -53 65 -83 l45 -56 3 59 c3 49 0 62 -17 78 -27 24
-27 48 -1 55 19 5 20 14 20 174 0 162 -1 169 -20 169 -11 0 -20 5 -20 11 0 6
9 9 20 6 20 -5 20 0 20 269 l0 275 -340 -1 c-187 -1 -344 1 -349 4 -5 4 -30
34 -56 69 -78 104 -149 194 -228 289 -22 26 -37 54 -34 61 4 12 68 16 359 21
194 4 379 9 411 12 l58 6 89 -88 90 -88 0 195 0 194 -171 -3 -171 -4 -181 180
c-176 173 -183 179 -199 161 -39 -41 -258 -15 -258 30 0 16 24 18 293 24 160
4 381 7 490 7 l197 0 0 340 0 340 -25 6 c-14 3 -25 9 -25 13 0 13 -60 42 -72
35 -16 -10 -100 -6 -111 5 -6 6 1 20 18 35 25 23 26 28 14 44 -8 9 -19 27 -26
38 -10 19 -9 23 10 28 12 3 66 6 120 6 l97 0 0 80 0 79 -207 -2 -207 -2 -14
-55 c-14 -58 -37 -93 -50 -75 -8 12 -81 32 -102 27 -17 -3 -50 -71 -50 -101 0
-17 26 -41 74 -66 36 -19 28 -33 -24 -44 -28 -6 -84 -11 -124 -11 l-73 0 -92
65 c-51 36 -96 65 -100 65 -4 0 -16 9 -27 21 -37 41 -104 64 -104 36 0 -17 40
-53 112 -101 76 -52 114 -91 96 -102 -7 -5 -168 -11 -358 -14 -334 -6 -346 -6
-380 14 -33 19 -130 95 -210 165 l-35 31 90 1 c240 3 554 15 561 22 4 4 -8 23
-26 42 -18 19 -32 37 -29 39 2 3 84 8 181 12 136 5 184 4 208 -6 22 -9 34 -10
38 -3 4 6 26 16 49 22 39 11 46 9 81 -13 40 -25 108 -56 122 -56 17 0 19 31 2
37 -22 9 -32 23 -32 51 0 13 6 22 14 22 8 0 22 -10 31 -22 13 -19 17 -20 25
-9 5 8 5 22 1 30 -5 9 -6 22 -4 29 3 7 1 12 -4 11 -28 -5 -41 4 -47 31 -3 17
-10 30 -15 30 -20 0 -106 89 -96 98 6 5 153 12 327 15 l317 5 40 -30 41 -30 0
227 0 226 -167 -6 c-93 -3 -185 -8 -206 -11 -27 -3 -51 3 -90 22 -72 37 -160
94 -154 100 3 3 94 7 204 10 109 2 224 6 256 9 38 3 68 0 85 -9 15 -7 37 -17
50 -20 20 -7 22 -4 22 27 0 34 -3 37 -82 75 l-83 41 71 0 c42 1 75 -4 82 -11
9 -9 12 38 12 211 l0 224 -118 -5 c-116 -4 -118 -4 -212 32 -152 59 -156 60
-327 69 -77 4 -137 11 -144 18 -18 18 54 24 223 21 117 -2 148 -6 148 -17 0
-11 3 -11 16 0 10 8 45 12 102 12 122 0 182 -11 201 -35 11 -13 33 -22 64 -25
l47 -6 0 42 0 41 -67 1 c-38 1 -75 1 -85 0 -9 -1 -33 7 -54 18 -21 12 -54 24
-72 27 -28 6 -38 2 -66 -25 -35 -34 -57 -34 -86 1 -14 16 -39 17 -290 17 -257
0 -536 -4 -745 -10 -136 -4 -205 0 -205 11 0 6 26 10 59 10 33 0 62 4 65 9 9
14 -46 23 -117 21 -93 -3 -109 -1 -104 13 3 9 35 12 117 12 66 0 115 4 117 10
2 6 -60 11 -170 12 -94 2 -194 7 -222 12 l-50 9 50 2 c194 7 675 -6 688 -19 9
-9 -17 -11 -114 -5 -90 5 -128 4 -133 -5 -5 -7 3 -11 24 -11 18 0 46 -10 63
-22 31 -22 40 -23 247 -23 150 0 219 3 227 11 18 17 -6 24 -86 24 -44 0 -74 5
-87 15 -17 13 -14 14 43 15 74 0 162 -17 184 -36 13 -11 79 -14 355 -14 266 1
335 3 319 12 -11 7 -57 13 -103 14 -46 1 -85 4 -88 6 -2 3 24 9 58 13 62 8 62
9 23 15 -37 5 -34 6 35 14 l75 9 -55 7 c-30 4 -90 10 -132 14 -73 5 -77 5 -75
-15 1 -12 11 -22 27 -25 51 -11 43 -13 -30 -8 -161 11 -330 45 -330 66 0 6 11
7 28 3 15 -4 164 -8 332 -10 168 -1 333 -6 368 -10 l62 -7 0 385 0 384 -27 -4
-28 -4 28 21 27 22 0 1419 0 1419 -4143 0 -4143 0 -39 -53 c-21 -28 -40 -54
-42 -56 -2 -3 -8 0 -14 6 -7 7 -5 23 10 54 12 23 21 44 21 46 0 2 -176 3 -391
3 l-391 0 31 -26 c38 -31 40 -47 6 -34 -23 9 -89 -6 -155 -34 -10 -4 -37 12
-75 44 l-60 49 -427 1 -428 0 0 -345z m288 250 c202 -45 380 -90 389 -98 20
-21 0 -18 -322 45 -173 34 -214 45 -235 65 -33 31 -24 31 168 -12z m1320 -83
c50 -36 92 -69 92 -74 0 -4 6 -8 13 -8 16 0 191 -137 195 -153 1 -7 -13 -21
-32 -31 -29 -16 -38 -17 -51 -6 -9 8 -13 21 -10 34 5 19 5 19 -5 3 -11 -17
-13 -17 -31 4 -23 26 -25 36 -4 19 12 -10 15 -10 15 3 0 20 -31 31 -42 15 -7
-12 -12 -4 -9 15 4 21 -36 68 -64 76 -41 11 -110 75 -100 91 6 10 3 12 -10 6
-12 -4 -31 3 -57 20 -38 27 -48 49 -25 57 15 5 13 7 125 -71z m-159 49 c37
-24 0 -38 -173 -66 l-176 -29 -25 24 c-14 13 -25 27 -25 32 0 4 21 8 48 9 26
0 103 9 172 19 151 21 161 22 179 11z m1869 -161 c67 -65 122 -120 122 -123 0
-4 -33 -18 -51 -21 -3 -1 -48 38 -100 86 -52 47 -106 96 -122 108 -15 12 -27
31 -27 45 0 25 -14 40 -45 48 -19 4 -18 5 2 6 12 0 25 6 28 11 8 13 37 -11
193 -160z m-1073 11 c72 -100 89 -131 63 -115 -14 9 -19 12 -66 50 -32 26
-157 183 -150 188 1 2 12 8 23 14 24 13 21 15 130 -137z m-870 -223 c72 -28
162 -63 201 -78 107 -41 159 -72 162 -98 3 -20 0 -21 -30 -15 -48 9 -308 117
-413 171 -49 26 -93 46 -97 44 -10 -3 -10 22 -1 31 8 9 18 6 178 -55z m-545
-33 c122 -25 120 -24 120 -45 0 -11 7 -20 16 -20 8 0 12 5 9 10 -3 6 3 10 13
10 18 0 186 -125 282 -209 28 -24 32 -32 21 -40 -15 -10 -51 -1 -165 43 -38
14 -77 24 -86 21 -11 -4 -31 8 -56 32 -34 33 -181 154 -239 198 -26 19 -11 19
85 0z m1571 -102 l11 -35 119 3 118 4 31 -48 c32 -50 39 -74 18 -60 -7 4 -73
10 -147 13 l-134 5 -17 50 c-10 28 -25 64 -34 80 -9 17 -16 36 -16 44 0 25 38
-18 51 -56z m-187 13 l38 -33 -85 -61 c-47 -34 -91 -62 -99 -62 -7 0 -19 9
-26 20 -7 12 -22 24 -34 29 -18 6 -10 16 68 74 49 36 91 66 94 66 3 0 22 -15
44 -33z m-1950 -7 c107 -19 121 -20 131 -6 9 13 18 13 53 4 39 -10 42 -13 48
-56 3 -26 14 -55 24 -66 27 -31 39 -60 31 -73 -5 -8 -61 15 -187 78 -162 82
-256 139 -229 140 5 0 64 -10 129 -21z m3201 -206 c67 -136 145 -306 143 -308
-2 -2 -15 -6 -29 -10 -22 -5 -28 -1 -47 37 -12 24 -23 54 -26 68 -3 23 -44
118 -84 198 -11 22 -24 32 -39 32 -29 0 -29 14 0 28 41 20 53 14 82 -45z
m1438 -60 c28 -15 53 -28 55 -29 1 -1 -10 -26 -26 -57 l-29 -55 -24 19 c-13
10 -27 19 -31 19 -4 0 -18 4 -32 9 l-25 10 22 55 c12 31 25 56 30 56 4 0 31
-12 60 -27z m-3153 -96 c109 -39 146 -57 148 -71 3 -12 0 -16 -8 -11 -7 4 -17
1 -22 -6 -8 -11 -9 -10 -5 3 5 14 -1 16 -38 13 -30 -3 -49 1 -59 10 -18 19
-25 19 -46 0 -13 -12 -23 -13 -48 -4 -36 12 -67 5 -59 -14 8 -20 -34 -15 -76
11 -43 25 -53 23 -59 -12 -9 -45 6 -56 73 -52 50 4 64 1 81 -16 26 -26 158
-98 181 -98 18 0 97 -66 97 -81 0 -4 -29 -10 -64 -14 -59 -7 -70 -4 -152 30
-49 21 -93 41 -98 46 -5 4 12 13 38 20 26 6 45 16 43 23 -6 16 -63 8 -108 -16
-45 -23 -66 -19 -115 24 -24 22 -33 36 -29 49 8 24 0 24 -27 -1 -27 -25 -55
-25 -93 0 -16 11 -38 20 -47 20 -11 0 -18 8 -18 18 0 14 18 24 68 42 77 27
257 114 267 130 10 16 21 13 175 -43z m-935 -3 c15 -10 24 -23 21 -31 -4 -11
0 -13 17 -9 12 3 16 3 9 0 -6 -3 -10 -10 -6 -15 3 -5 -12 -10 -33 -11 -21 0
-65 -2 -98 -4 -33 -1 -62 -3 -65 -4 -3 -1 -24 -3 -47 -5 -28 -2 -43 1 -47 11
-3 7 -24 26 -48 41 l-43 28 65 5 c173 13 248 12 275 -6z m-501 -174 c16 -6 24
-15 20 -23 -3 -10 16 -26 60 -51 36 -20 66 -41 66 -46 0 -6 7 -10 15 -10 9 0
26 -7 39 -15 18 -12 42 -15 97 -11 88 5 126 -8 163 -56 14 -19 26 -38 26 -41
0 -12 -45 -30 -112 -44 -68 -14 -69 -14 -98 10 -16 14 -102 71 -192 127 -90
57 -171 110 -180 118 -23 19 -14 32 22 32 16 0 32 5 35 10 8 12 8 12 39 0z
m1984 -35 c61 -14 113 -25 116 -25 3 0 6 -10 6 -22 0 -15 -11 -29 -31 -40 -42
-24 -61 -23 -89 7 -13 14 -32 25 -42 25 -31 0 -98 48 -92 65 8 19 1 19 132
-10z m-1511 -333 c43 -27 111 -69 150 -95 l73 -47 -26 -37 c-33 -50 -31 -48
-51 -31 -18 14 -249 141 -366 201 l-62 31 63 7 c34 3 65 9 69 12 19 20 77 4
150 -41z m969 -188 l121 -7 37 -50 c20 -27 36 -51 34 -52 -2 -1 -64 1 -138 6
-74 4 -160 8 -191 8 l-56 1 -37 56 -36 57 72 -7 c40 -3 127 -9 194 -12z m742
-156 c8 -8 38 -11 87 -9 l74 3 19 -39 c11 -21 32 -49 46 -62 45 -42 35 -53
-39 -47 -54 4 -66 2 -74 -12 -9 -16 -11 -15 -28 3 -11 11 -56 51 -101 89 -45
38 -79 73 -76 77 8 13 78 11 92 -3z m-254 -89 c6 -5 5 -66 -2 -156 -7 -80 -9
-150 -5 -154 5 -4 40 -4 78 1 171 23 168 23 199 -5 15 -14 27 -28 24 -30 -4
-4 -308 -45 -335 -45 -11 0 -14 8 -11 35 2 19 1 36 -2 37 -4 2 -4 62 0 133 7
141 3 169 -29 178 -12 3 -21 9 -21 15 0 11 91 4 104 -9z m-1709 -190 c55 -33
110 -70 122 -81 60 -57 86 -64 190 -56 138 11 261 -11 299 -54 l19 -21 -65 6
c-36 4 -124 8 -195 9 -110 3 -135 0 -157 -14 -27 -18 -27 -17 -109 40 -45 31
-124 90 -176 130 -51 39 -98 72 -103 72 -6 0 -10 4 -10 9 0 9 23 15 70 20 9 0
61 -26 115 -60z m-228 -221 c-1 -13 -7 -16 -22 -12 -20 6 -20 6 0 -10 17 -13
21 -13 31 -1 15 19 25 19 18 0 -4 -10 0 -15 11 -15 10 0 13 4 9 12 -4 7 9 2
30 -10 20 -12 54 -22 74 -23 32 -1 34 -2 12 -8 l-25 -7 28 -6 c15 -3 27 -1 27
3 0 5 5 9 11 9 6 0 9 -7 5 -15 -3 -10 1 -15 14 -15 10 0 21 -4 25 -9 3 -6 -10
-8 -32 -5 -29 4 -34 3 -23 -5 11 -8 12 -11 2 -11 -7 0 -20 7 -28 15 -18 17
-34 20 -34 5 0 -5 -9 -10 -20 -10 -22 0 -27 -15 -7 -23 7 -4 6 -6 -5 -6 -9 -1
-18 2 -20 7 -1 4 -40 39 -85 77 -46 38 -83 73 -83 78 0 4 20 6 44 5 37 -1 44
-5 43 -20z m1737 -66 c85 -46 75 -52 -89 -52 -139 0 -149 1 -166 22 -31 35
-24 47 34 51 145 10 170 7 221 -21z m1046 -34 c0 -3 -21 -19 -47 -34 -27 -15
-71 -44 -98 -64 l-51 -37 -33 27 -33 28 87 59 c134 89 126 87 152 55 12 -15
22 -30 23 -34z m-2180 -186 c0 -5 52 -73 115 -152 64 -79 114 -144 113 -145
-2 -1 -24 0 -51 3 l-47 4 -100 134 c-56 73 -106 137 -113 141 -8 5 1 10 23 14
53 10 60 10 60 1z m386 -163 c16 -22 35 -47 42 -55 7 -7 10 -19 6 -25 -4 -7
-3 -9 3 -6 13 8 56 -37 46 -47 -5 -4 -3 -6 3 -4 13 3 84 -78 84 -96 0 -14 -20
-36 -32 -36 -4 0 -8 6 -8 13 0 6 -19 32 -41 57 -68 75 -96 114 -91 129 3 8 0
11 -6 7 -12 -7 -38 32 -34 51 2 7 -7 17 -19 24 -17 9 -19 13 -8 20 21 13 23
12 55 -32z m-939 -143 c40 -11 380 -173 401 -191 2 -2 -6 -17 -18 -33 l-22
-30 -107 52 c-59 29 -122 58 -140 64 -26 9 -31 16 -26 31 9 29 -76 78 -109 63
-17 -8 -30 -5 -64 15 -23 14 -42 29 -42 34 0 13 68 11 127 -5z m4483 -261 c15
-18 7 -19 -22 -4 -39 21 -36 -6 6 -55 37 -42 46 -47 62 -38 18 11 18 11 1 12
-10 0 -24 6 -32 13 -11 11 -10 15 4 24 18 11 41 6 41 -10 0 -6 7 -18 16 -28
13 -15 28 -17 94 -12 68 5 81 3 98 -13 33 -32 34 -52 5 -56 -29 -3 -42 -24
-21 -31 7 -2 4 -3 -7 -1 -11 2 -43 4 -70 4 l-51 0 4 40 4 40 -43 0 c-24 0 -50
-4 -58 -9 -10 -6 -27 7 -62 49 -27 32 -53 61 -59 65 -22 14 -8 25 34 25 26 0
48 -6 56 -15z m-3511 -47 c11 -10 14 -10 18 0 9 24 30 11 101 -58 74 -71 83
-84 57 -74 -18 7 -20 -7 -2 -25 10 -11 8 -12 -12 -6 -21 6 -22 5 -10 -8 10
-10 18 -12 26 -5 8 7 19 3 34 -11 25 -23 59 -26 105 -11 44 14 90 19 104 10 6
-4 -10 -9 -39 -12 -63 -6 -72 -14 -42 -34 12 -9 20 -22 17 -29 -7 -18 28 -25
70 -13 20 5 38 7 42 4 3 -3 -2 -6 -11 -6 -26 0 -20 -17 8 -24 17 -4 37 1 65
19 41 26 74 32 84 16 3 -5 -8 -14 -26 -20 l-32 -11 21 -22 c21 -21 40 -24 126
-19 16 0 26 5 23 10 -3 4 12 16 34 26 34 15 45 16 67 6 15 -7 23 -15 17 -19
-5 -4 -9 -24 -9 -44 0 -21 -4 -38 -10 -39 -39 -2 -221 2 -270 7 l-60 5 25 -21
c88 -75 102 -82 157 -75 32 4 54 2 58 -4 4 -7 -10 -11 -39 -11 -25 0 -46 -4
-46 -8 0 -31 64 -41 157 -23 92 18 133 21 133 11 0 -5 -19 -11 -42 -11 -24 -1
-33 -4 -20 -6 12 -2 20 -8 17 -13 -3 -5 -37 -6 -75 -3 -47 4 -74 2 -84 -6 -8
-7 -25 -9 -38 -6 -18 5 -39 -7 -103 -60 -65 -54 -258 -230 -323 -294 -12 -13
-20 -12 -56 7 -22 11 -88 35 -146 52 -58 17 -119 36 -136 41 -52 16 -73 18
-79 8 -4 -5 -14 -9 -23 -9 -38 1 33 40 73 40 35 1 45 7 74 43 l33 42 -27 11
-28 11 33 12 c42 14 43 14 36 -5 -6 -15 -4 -15 11 -3 10 7 32 26 48 41 17 15
44 39 60 53 l30 25 -27 -6 c-39 -9 -63 2 -64 30 -2 22 0 23 25 11 57 -28 67
-27 111 10 23 19 55 43 71 52 35 21 36 29 8 44 -19 10 -20 12 -6 27 13 12 19
13 31 3 9 -8 13 -18 10 -23 -10 -16 29 8 50 31 18 20 18 21 -5 40 -31 26 -46
26 -61 1 -18 -29 -33 -25 -58 15 -12 19 -27 35 -34 35 -7 0 -21 9 -31 20 -10
11 -23 20 -29 20 -17 0 -97 79 -135 134 -27 39 -31 50 -20 58 11 8 11 9 -3 5
-12 -4 -19 3 -27 24 -11 31 -4 37 18 17z m2350 -84 c24 -52 37 -72 44 -65 6 6
38 10 72 9 l60 -1 -50 -7 -50 -7 50 -2 c30 -1 45 -5 37 -9 -7 -5 -42 -7 -77
-6 -36 2 -65 -1 -65 -5 0 -13 27 -21 78 -22 26 -1 39 -3 30 -6 -10 -2 -18 -9
-18 -14 0 -5 -17 -9 -38 -9 -33 0 -41 4 -55 33 -14 28 -16 29 -16 10 -1 -13 4
-23 9 -23 6 0 10 -4 10 -9 0 -4 -9 -8 -21 -7 -17 1 -22 8 -24 43 -3 35 -21 84
-63 166 -2 4 9 7 25 7 25 0 31 -7 62 -76z m2786 66 c-3 -6 -27 -10 -53 -10
l-47 -1 33 -29 c18 -17 41 -30 51 -30 11 0 31 -13 44 -30 24 -28 31 -30 91
-30 54 0 64 -3 60 -15 -4 -8 -14 -15 -23 -16 -9 -1 -6 -4 9 -9 22 -7 20 -8
-15 -10 -22 -1 -51 -6 -65 -10 -23 -7 -23 -8 10 -10 19 -1 49 -6 65 -11 19 -5
-14 -7 -89 -4 -69 2 -123 8 -130 15 -20 20 15 30 102 30 48 0 81 4 77 9 -3 5
3 12 12 15 10 3 -19 3 -63 1 -72 -4 -84 -2 -99 15 -15 16 -31 20 -87 20 -45 0
-68 4 -68 12 0 6 -7 19 -15 28 -13 14 -12 16 8 18 12 1 31 4 42 6 11 3 27 5
35 6 12 0 11 3 -2 11 -10 5 -18 16 -18 23 0 10 19 14 71 15 44 1 68 -3 64 -9z
m-1011 -81 c15 -18 24 -20 62 -14 36 5 44 3 44 -9 0 -12 10 -16 35 -16 19 0
35 5 35 10 0 7 29 10 78 9 95 -2 112 -6 112 -26 0 -14 -15 -15 -123 -10 -84 4
-141 1 -179 -8 -47 -11 -64 -10 -109 2 -30 8 -62 15 -71 15 -24 -1 -12 25 15
32 12 3 32 6 45 6 24 0 30 15 10 23 -7 3 -4 6 7 6 11 1 29 -8 39 -20z m2215
-79 c53 -7 80 -16 93 -30 15 -16 33 -20 81 -21 34 -1 72 -3 85 -4 12 -1 53 -5
90 -9 78 -8 112 -16 112 -25 0 -6 -106 -6 -612 -2 -174 1 -198 3 -198 17 0 14
16 15 124 12 83 -2 128 1 137 9 8 6 28 13 44 16 25 3 22 4 -12 6 -52 1 -73 9
-73 27 0 17 25 17 129 4z m609 -6 c42 -9 115 -22 162 -29 47 -8 117 -21 155
-31 39 -9 88 -20 110 -23 l40 -7 -39 -8 c-27 -5 -41 -4 -46 4 -5 9 -57 12
-175 11 -177 -1 -256 6 -220 20 11 4 37 8 57 8 37 1 57 14 38 26 -6 4 -89 6
-185 5 -114 0 -175 3 -175 10 0 6 25 10 58 10 31 0 64 5 72 10 21 14 60 12
148 -6z m-2323 -4 c3 -5 0 -10 -7 -10 -9 -1 -7 -5 5 -14 23 -18 22 -29 -4 -21
-14 5 -19 3 -15 -3 9 -16 -13 -19 -81 -14 -64 5 -73 -1 -50 -31 9 -12 33 -16
109 -18 151 -4 140 -19 -14 -19 l-136 0 -12 35 -12 35 -136 1 c-75 0 -157 4
-182 9 -30 5 28 8 171 8 237 1 269 5 269 33 0 16 8 19 44 19 25 0 48 -4 51
-10z m-3475 -16 c0 -8 3 -13 8 -11 4 2 23 -2 42 -9 l35 -14 -35 3 c-45 3 -47
-22 -4 -43 17 -9 29 -21 27 -26 -2 -6 15 -28 39 -49 24 -22 37 -40 30 -43 -7
-2 -12 -10 -12 -18 0 -39 -102 -15 -115 27 -7 20 -115 123 -115 109 0 -5 -17
-17 -37 -25 l-37 -16 53 -49 c29 -27 74 -59 99 -71 87 -42 120 -68 114 -91 -4
-18 -2 -20 29 -13 19 4 56 16 82 26 26 11 59 19 73 19 13 0 32 4 42 9 16 9 71
25 82 24 3 0 19 -3 35 -7 22 -5 26 -4 15 4 -12 8 -11 10 8 10 12 0 22 -4 22
-9 0 -5 26 -15 58 -21 72 -15 95 -34 87 -71 -6 -27 -5 -28 32 -24 29 4 32 3
13 -3 -24 -8 -24 -8 9 -15 64 -13 127 -5 115 14 -3 5 -15 9 -27 10 -12 0 2 7
32 14 59 14 76 12 85 -11 3 -9 21 -14 48 -15 45 -1 44 -2 -7 -14 l-30 -7 25
-10 c14 -6 106 -12 205 -15 99 -3 184 -9 189 -13 5 -5 -5 -26 -23 -49 -30 -37
-50 -49 -62 -36 -3 2 -88 7 -189 10 -102 3 -196 8 -210 9 -14 2 -99 7 -190 10
-264 11 -302 19 -225 52 19 8 35 15 35 17 0 1 -98 1 -219 -1 -207 -3 -219 -2
-223 16 -3 10 1 27 8 37 20 28 18 31 -33 50 -27 10 -52 22 -57 26 -6 5 -17 9
-25 9 -14 -1 -13 -3 2 -14 30 -23 18 -25 -22 -3 -46 25 -44 37 7 37 69 0 65
12 -33 90 -52 41 -94 80 -95 87 0 6 -14 22 -31 34 -42 29 -28 37 97 55 34 5
45 3 63 -15 29 -29 46 -26 73 9 24 33 38 38 38 14z m6810 5 c36 -5 69 -14 73
-19 12 -11 -226 -24 -342 -17 -98 5 -201 26 -201 39 0 12 396 9 470 -3z
m-5408 -48 c10 -12 29 -21 45 -21 27 1 27 1 9 15 -19 14 -18 15 12 15 18 0 32
-4 32 -9 0 -6 10 -8 21 -6 31 6 79 -22 79 -45 0 -16 -7 -20 -31 -20 -25 0 -29
3 -24 19 4 13 0 20 -17 24 -13 4 -26 1 -30 -6 -5 -9 -67 -13 -218 -15 -186 -3
-210 -2 -210 12 0 14 16 16 106 16 58 0 103 4 100 8 -3 5 18 7 47 5 50 -4 51
-3 27 11 -20 12 -21 15 -7 16 11 0 15 5 11 11 -11 18 29 -7 48 -30z m-3511 4
c5 4 15 0 22 -7 12 -10 11 -19 -2 -52 -10 -26 -12 -41 -5 -43 12 -4 6 -50 -7
-59 -5 -3 -9 -17 -10 -32 0 -24 -1 -25 -9 -7 -7 18 -9 18 -15 3 -4 -10 -5 -23
-3 -30 3 -7 -2 -19 -10 -27 -10 -10 -11 -16 -3 -19 6 -2 9 -8 5 -13 -3 -5 2
-9 12 -9 11 0 15 6 11 20 -4 17 0 20 30 20 19 0 41 -7 49 -15 9 -8 39 -22 69
-30 55 -16 82 -49 42 -52 -11 -1 -29 -11 -41 -22 -16 -15 -36 -21 -66 -21
l-44 0 47 33 c66 45 62 57 -22 57 -46 0 -71 -4 -74 -12 -4 -10 -8 -10 -15 0
-7 10 -12 2 -20 -30 -12 -47 -36 -76 -64 -75 -18 0 -18 20 2 77 19 52 40 149
40 180 0 23 -5 33 -20 37 -29 8 -14 23 23 23 44 0 64 25 61 80 -1 25 1 39 3
32 3 -6 9 -10 14 -7z m2751 -46 c-1 -13 -7 -26 -12 -29 -6 -4 -7 -21 -4 -39
l7 -33 58 5 c53 4 60 2 83 -22 14 -15 26 -32 26 -37 0 -6 -28 -16 -62 -22 -57
-11 -64 -10 -83 8 -33 31 -73 41 -144 36 -36 -3 -55 -3 -41 0 14 3 29 10 34
14 5 5 21 7 35 4 30 -6 81 10 81 26 0 17 -51 60 -63 53 -6 -3 -7 -1 -3 5 5 9
-8 12 -43 12 -27 0 -53 5 -56 10 -4 6 15 10 49 10 31 0 56 -4 56 -10 0 -19 27
-10 46 15 22 30 40 27 36 -6z m2385 1 c16 0 24 -11 34 -45 l13 -45 96 -2 c155
-2 179 -4 186 -11 4 -4 -54 -7 -129 -7 -75 0 -137 -2 -137 -5 0 -22 36 -55 60
-55 17 0 30 -7 34 -17 3 -10 9 -24 12 -31 5 -10 -5 -12 -42 -10 -38 2 -49 7
-54 23 -4 15 -13 20 -40 19 -32 -1 -38 4 -67 50 -18 28 -33 55 -33 60 0 5 -7
17 -16 27 -14 15 -13 18 10 37 15 11 26 26 26 33 1 10 5 9 14 -3 7 -10 22 -18
33 -18z m-4406 -22 c-40 -12 -60 -23 -52 -27 7 -5 12 -12 12 -17 -1 -5 24 -10
54 -12 30 -2 55 -6 55 -10 0 -4 -8 -17 -18 -29 -16 -19 -28 -21 -152 -25 -127
-4 -133 -3 -97 11 l38 14 -32 28 -33 28 28 10 c15 6 43 11 62 11 19 0 34 4 34
8 0 17 46 31 105 30 l60 0 -64 -20z m2225 13 c5 -5 26 -14 46 -20 29 -10 37
-17 35 -33 -1 -11 5 -23 13 -26 13 -5 13 -3 1 11 -7 10 -9 17 -3 17 5 0 17
-12 27 -26 12 -18 13 -24 4 -19 -8 3 -6 0 4 -8 9 -8 17 -17 17 -21 0 -17 54
-76 69 -75 10 0 11 2 3 6 -6 2 -10 9 -6 14 7 12 84 12 84 -1 0 -5 -11 -10 -25
-10 -14 0 -25 -4 -25 -10 0 -5 -7 -10 -16 -10 -9 0 -14 -6 -12 -12 3 -9 37
-15 104 -18 54 -3 100 -9 101 -15 1 -6 -41 -8 -116 -5 l-118 5 -49 40 c-87 71
-104 88 -104 104 0 14 2 14 10 1 5 -8 11 -12 14 -9 9 9 -68 76 -113 100 -23
11 -41 23 -41 25 0 8 86 4 96 -5z m4829 -6 c66 -3 152 -13 192 -22 69 -16 70
-17 46 -30 -27 -14 -214 -19 -227 -6 -4 4 -115 7 -246 8 -134 0 -239 4 -237 9
1 5 75 8 164 7 90 -1 168 1 174 5 8 4 -1 14 -22 26 l-34 18 35 -4 c19 -3 89
-8 155 -11z m510 6 c10 -18 97 -24 146 -12 65 17 99 16 139 -2 26 -12 76 -17
185 -20 138 -4 225 -17 225 -35 0 -12 -586 -5 -609 8 -14 7 -47 8 -96 4 -53
-5 -75 -3 -75 5 0 7 19 11 49 11 28 0 52 4 55 9 11 17 -73 31 -157 26 -47 -3
-96 -1 -109 4 -16 7 16 10 109 10 72 1 134 -3 138 -8z m-4663 -59 c18 -16 44
-36 58 -45 14 -10 25 -25 25 -35 0 -14 12 -17 76 -20 59 -2 80 1 92 13 19 18
76 20 82 3 2 -7 6 -37 10 -65 l6 -53 -35 0 c-38 0 -46 -8 -56 -54 -4 -19 -12
-30 -21 -28 -7 2 -21 3 -29 3 -82 -5 -100 -1 -100 26 0 22 -75 129 -136 193
-32 33 -43 68 -27 83 11 12 21 8 55 -21z m2864 -26 c26 -18 66 -24 197 -30
170 -8 98 -16 -134 -16 -190 1 -238 3 -253 15 -11 8 -29 15 -40 15 -35 0 -3
19 39 24 22 2 47 6 55 9 43 16 105 22 108 11 2 -7 14 -20 28 -28z m-479 0 c-4
-9 2 -18 15 -22 16 -5 18 -8 7 -15 -11 -7 -10 -11 6 -23 25 -20 165 -22 184
-3 10 10 12 7 9 -12 -3 -24 -5 -24 -78 -22 -69 2 -73 1 -55 -13 11 -8 32 -16
47 -16 31 0 58 -9 58 -19 0 -9 -235 -3 -390 10 -124 10 -170 25 -170 53 0 20
33 26 142 26 54 0 100 4 103 10 3 5 -10 19 -29 31 -20 12 -36 23 -36 25 0 2
43 4 96 4 80 0 95 -2 91 -14z m1751 -19 c-20 -7 -40 -15 -44 -19 -9 -10 -368
-11 -413 -2 -17 4 -31 10 -31 15 0 12 58 15 305 16 180 1 213 -1 183 -10z
m-2868 -8 c0 -8 -19 -10 -60 -6 -34 3 -75 1 -93 -3 -18 -4 -49 -11 -70 -15
-33 -5 -37 -8 -26 -22 10 -11 26 -14 64 -10 58 5 75 1 75 -19 0 -11 -16 -14
-65 -14 l-65 0 0 -41 c0 -33 -3 -40 -16 -35 -9 3 -22 6 -30 6 -8 0 -14 6 -13
13 5 42 -18 50 -52 16 -20 -20 -22 -21 -58 -4 -32 14 -48 15 -115 6 -43 -6
-91 -11 -108 -11 -29 0 -30 2 -24 30 3 17 4 31 3 31 -1 1 -60 5 -132 8 l-130
6 70 9 c42 5 97 5 137 0 72 -10 125 -1 98 16 -8 5 -31 10 -50 10 -34 1 -34 1
-15 16 14 11 32 14 60 10 22 -4 114 -9 205 -12 131 -4 173 -2 205 10 49 18
205 22 205 5z m-3860 -59 c0 -5 -6 -13 -13 -17 -8 -4 -16 -15 -20 -24 -4 -13
-1 -16 14 -12 10 3 19 0 19 -6 0 -6 -4 -11 -9 -11 -5 0 -7 -9 -4 -20 4 -14 0
-20 -11 -20 -11 0 -14 4 -10 13 5 8 2 7 -9 -2 -12 -9 -31 -12 -60 -8 -36 5
-50 2 -80 -19 -20 -13 -37 -29 -37 -34 0 -5 -7 -16 -16 -24 -12 -13 -39 -16
-129 -16 -115 0 -138 -7 -115 -35 16 -19 3 -20 -15 -1 -8 7 -11 16 -8 20 3 3
-2 9 -11 12 -10 4 -13 9 -8 13 7 4 4 16 -8 31 l-18 24 -24 -19 c-17 -15 -19
-16 -9 -2 12 15 11 17 -3 17 -9 0 -16 -6 -17 -12 0 -10 -2 -10 -6 0 -3 8 -9
10 -16 4 -7 -5 -23 -13 -35 -17 -21 -6 -23 -5 -13 13 6 11 22 23 36 26 14 4
25 12 25 18 0 7 6 4 13 -5 11 -16 20 -16 92 -6 43 6 92 18 109 26 24 12 51 14
140 9 104 -7 114 -6 160 17 48 23 49 25 27 36 -22 12 -22 13 -4 26 21 16 73
20 73 5z m7020 -11 c11 -20 9 -20 -66 -17 -44 1 -79 -2 -81 -7 -2 -6 -94 -10
-241 -10 -215 0 -240 2 -264 19 -16 10 -28 15 -28 12 0 -4 -6 -4 -12 1 -7 4
136 10 317 13 182 3 338 6 347 8 10 1 22 -7 28 -19z m-800 -20 c0 -4 19 -3 41
2 39 9 43 8 76 -26 19 -19 39 -35 46 -36 86 -4 494 4 501 11 5 5 17 5 29 -1
10 -6 38 -8 61 -5 114 17 197 17 246 1 43 -14 94 -16 377 -13 l328 3 75 -32
c41 -17 95 -36 119 -43 90 -24 26 -31 -280 -33 l-304 -2 -82 36 c-45 20 -83
33 -85 28 -4 -13 -592 -32 -782 -26 -87 2 -161 9 -165 14 -3 5 -26 15 -50 22
-24 7 -57 26 -73 42 -17 16 -40 29 -54 29 -24 0 -32 -14 -14 -25 6 -3 10 -12
10 -18 0 -14 -173 -15 -350 -1 l-115 9 195 5 195 5 3 42 c3 41 4 42 28 31 13
-6 24 -15 24 -19z m-1701 -54 c2 -2 6 -19 10 -37 5 -24 13 -34 29 -36 17 -3
22 -9 20 -25 -3 -22 -5 -22 -240 -25 -233 -2 -238 -2 -238 18 0 13 -7 20 -20
20 -11 0 -20 5 -20 11 0 6 12 10 28 9 49 -4 60 0 65 20 6 23 37 27 37 5 0 -9
9 -15 24 -15 35 0 56 10 56 26 0 16 -35 27 -76 23 -46 -3 -64 0 -64 12 0 9 50
10 192 5 106 -4 195 -9 197 -11z m1678 -75 c10 -18 31 -34 53 -41 19 -7 43
-18 53 -24 16 -11 10 -14 -45 -17 -34 -3 -134 -5 -220 -7 l-158 -2 -45 33
c-24 18 -44 36 -45 41 0 4 81 7 181 7 176 0 180 1 174 20 -11 33 31 25 52 -10z
m-5273 -16 c149 -7 149 -7 126 -26 -40 -33 -21 -38 214 -62 76 -8 143 -19 148
-24 6 -6 -16 -31 -57 -67 -60 -53 -67 -57 -83 -42 -12 11 -72 22 -204 36 -103
12 -195 24 -203 27 -9 4 -15 16 -13 28 3 19 -3 22 -57 27 -33 4 -96 7 -140 8
-44 1 -103 4 -132 7 l-52 7 48 38 c76 61 63 59 405 43z m4369 -31 c18 -10 34
-21 35 -25 2 -5 84 -8 182 -8 149 0 181 -3 194 -16 9 -8 16 -19 16 -24 0 -4
-42 -10 -92 -12 -69 -3 -96 -1 -104 9 -17 20 -26 16 -22 -9 3 -22 6 -23 143
-26 77 -1 144 -7 149 -12 7 -7 5 -10 -5 -10 -11 0 -11 -2 -1 -8 7 -5 44 -7 82
-4 l70 4 0 -29 0 -30 -82 -7 c-46 -3 -164 -9 -264 -13 l-180 -6 -16 34 c-9 18
-14 37 -12 41 3 4 92 9 197 9 149 1 179 4 132 10 -33 5 -98 8 -143 7 -79 -1
-84 0 -96 23 -10 20 -21 25 -69 29 -56 5 -58 5 -52 -17 l5 -23 -202 0 -203 1
-47 44 c-27 24 -48 48 -48 54 0 8 58 11 183 11 100 0 189 5 197 10 19 12 17
13 53 -7z m-2450 -14 c5 -19 11 -21 44 -15 21 4 148 9 283 11 135 3 257 7 273
11 23 5 27 2 27 -15 0 -20 5 -21 73 -19 40 1 78 -2 85 -5 6 -4 13 -3 17 3 9
15 42 12 49 -5 4 -12 25 -15 102 -15 85 0 95 2 84 15 -18 22 -6 28 37 20 38
-7 38 -7 13 -19 -21 -9 -11 -11 68 -14 94 -3 104 -8 82 -42 -7 -12 -42 -16
-185 -18 l-176 -3 -10 31 c-11 30 -12 30 -71 28 -33 -1 -62 -6 -64 -10 -3 -4
4 -8 16 -8 18 0 19 -3 10 -20 -10 -19 -19 -20 -102 -18 -112 4 -130 22 -31 33
102 11 54 27 -64 21 -54 -3 -100 -5 -103 -5 -3 -1 -5 -29 -5 -63 0 -52 3 -63
18 -66 10 -2 17 3 17 11 0 13 30 16 188 19 197 4 216 3 209 -16 -4 -9 57 -11
242 -9 l246 3 21 -45 c11 -25 19 -47 16 -50 -3 -3 -106 -5 -230 -5 -210 0
-224 -1 -217 -17 23 -55 28 -53 -111 -54 -71 0 -149 -1 -174 -2 -25 0 -81 0
-126 1 l-80 2 -27 80 c-15 44 -27 97 -27 119 l0 40 -237 1 c-130 0 -247 3
-259 6 -17 4 -22 0 -27 -23 -3 -15 -8 -35 -12 -45 -5 -14 4 -17 59 -23 70 -8
77 -15 48 -53 -20 -26 -47 -22 -55 8 -4 16 -22 18 -173 24 -93 3 -235 9 -316
12 l-148 6 0 38 c0 45 11 50 113 50 65 0 70 2 101 35 30 32 37 35 77 30 24 -2
117 -7 206 -10 148 -4 163 -3 184 14 23 19 24 19 5 40 -16 17 -16 21 -4 21 9
0 18 -10 21 -21z m1390 -40 l24 -31 177 7 c97 4 176 12 176 16 0 12 227 11
235 -1 3 -5 3 -21 -1 -35 -6 -23 -10 -25 -65 -25 -56 0 -59 1 -47 20 15 24 10
29 -36 37 -29 4 -36 2 -36 -10 0 -9 10 -22 22 -28 12 -7 36 -27 54 -45 24 -27
39 -34 68 -34 20 0 36 -4 36 -10 0 -5 15 -10 34 -10 33 0 35 -2 38 -37 l3 -38
212 -5 212 -5 38 -36 c44 -41 107 -83 85 -56 -12 15 6 16 215 19 243 3 253 2
319 -49 31 -23 35 -23 215 -21 l184 3 -35 23 -35 23 60 -7 c33 -3 88 -7 123
-8 44 -1 62 -5 62 -14 0 -16 13 -29 62 -62 21 -14 38 -28 38 -32 0 -5 -123 -8
-273 -8 -151 0 -276 -3 -280 -6 -6 -7 89 -94 103 -94 6 0 10 -8 10 -17 0 -17
-20 -18 -259 -21 l-258 -4 -78 74 c-42 40 -82 75 -88 77 -16 5 -42 43 -42 59
0 11 -49 14 -263 12 l-263 -1 -71 68 -71 68 5 -72 c3 -40 10 -78 15 -85 6 -7
14 -24 17 -38 6 -24 6 -23 -9 3 -19 33 -39 31 -43 -4 -4 -38 10 -49 74 -58 32
-5 48 -10 34 -11 -14 -2 -36 -5 -50 -8 -14 -2 -146 -6 -293 -8 l-268 -5 -17
32 c-9 17 -27 47 -39 65 -18 27 -20 36 -9 40 7 3 17 4 22 3 27 -5 34 2 28 26
l-6 25 214 0 214 0 25 -29 c20 -22 29 -27 38 -18 6 6 11 17 11 24 0 8 7 16 15
19 12 5 15 25 15 95 l0 89 -267 0 -268 0 -30 58 c-29 55 -31 57 -66 54 -31 -3
-37 0 -43 20 -12 47 -8 58 23 58 21 0 37 -9 54 -31z m3290 -16 c63 -20 86 -32
84 -43 -2 -13 -45 -15 -322 -14 -631 1 -624 1 -631 19 -4 9 -5 18 -2 20 2 3
168 8 369 13 238 6 372 13 384 20 26 15 18 16 118 -15z m848 -61 c-6 -2 -35 2
-64 10 -39 10 -120 12 -325 10 -189 -2 -283 0 -308 8 -19 7 -32 15 -29 18 4 4
149 9 323 12 l317 5 49 -30 c26 -16 43 -31 37 -33z m-1941 23 c107 -12 180
-35 180 -57 0 -5 -123 -8 -273 -8 l-273 0 -47 30 c-26 16 -47 34 -47 40 0 15
312 11 460 -5z m-4980 -135 c8 0 74 -3 147 -6 l131 -6 6 -46 c10 -79 6 -106
-19 -144 -29 -44 -31 -54 -9 -62 27 -10 294 -7 294 4 0 5 11 12 24 16 14 3 27
12 30 20 4 11 -12 14 -92 13 -53 0 -91 -3 -84 -6 10 -4 10 -8 1 -19 -15 -18
-53 -18 -68 -1 -19 24 26 34 157 36 116 2 122 2 122 -18 0 -11 4 -22 9 -25 12
-8 41 4 41 16 0 6 -6 8 -14 5 -8 -3 -16 0 -19 6 -3 9 13 11 59 9 52 -3 64 -7
64 -20 1 -11 16 0 46 32 l45 49 216 -6 c119 -4 220 -10 225 -15 10 -10 -7 -76
-37 -146 -9 -21 -14 -45 -10 -54 8 -21 18 -8 22 30 2 17 4 33 6 34 1 1 81 5
179 9 l176 8 -1 -31 c-2 -36 16 -48 21 -14 4 23 22 31 22 9 0 -8 15 -14 37
-15 20 -2 39 -5 43 -7 10 -6 -12 -88 -27 -100 -7 -5 -16 -39 -20 -75 l-8 -65
-263 -5 -262 -5 0 21 c0 31 21 34 220 34 96 0 198 3 226 6 49 6 50 7 46 35
l-4 29 -247 -2 -246 -3 -4 -25 c-3 -23 -4 -23 -16 10 l-12 35 -274 0 c-297 0
-285 -2 -257 53 11 22 12 22 282 23 149 1 286 1 304 0 26 -2 32 1 32 18 0 11
-5 23 -11 27 -6 3 -8 17 -5 30 l6 24 -297 0 c-224 0 -294 -3 -285 -12 13 -13
4 -34 -38 -80 -17 -18 -30 -35 -30 -38 0 -6 -577 -2 -607 5 -15 4 -23 13 -23
28 -1 19 -6 16 -41 -23 -22 -25 -57 -69 -77 -98 -47 -70 -54 -57 -56 104 -1
96 -5 127 -17 139 -15 15 -191 29 -519 40 -197 6 -330 17 -336 26 -3 5 13 9
36 9 25 0 39 4 35 10 -4 6 12 10 42 9 26 0 42 -3 36 -6 -7 -2 -13 -9 -13 -14
0 -14 43 -10 64 6 23 18 53 20 58 4 6 -19 82 -20 110 -1 85 57 106 72 131 97
l27 28 189 -7 c206 -8 233 -4 224 36 l-5 23 16 -22 c19 -26 68 -38 93 -24 17
10 17 10 -2 11 -11 0 -26 10 -33 21 -13 21 -12 21 30 15 24 -3 50 -6 58 -6z
m-1508 -26 l105 -7 12 -32 c15 -42 14 -67 -3 -91 -14 -18 -16 -18 -28 -2 -11
15 -48 18 -306 24 -293 7 -321 11 -263 40 12 6 32 21 45 33 12 11 28 21 34 21
7 0 12 5 12 10 0 11 229 14 392 4z m7713 -30 c28 -14 74 -34 103 -43 29 -10
53 -22 53 -27 -1 -5 -125 -11 -291 -14 -181 -3 -291 -9 -292 -15 -1 -5 14 -20
33 -33 19 -13 34 -31 34 -40 0 -15 -17 -18 -130 -23 -71 -4 -190 -7 -263 -8
l-133 -1 -47 32 c-46 31 -59 42 -85 63 -7 6 -28 16 -47 22 -32 10 -29 11 44
12 83 1 95 11 23 20 -27 4 -43 12 -45 22 -2 13 9 18 50 22 70 9 270 7 335 -2
51 -7 52 -7 37 11 -16 17 -6 18 267 21 156 1 289 3 294 4 6 1 33 -9 60 -23z
m808 -59 c59 -27 107 -53 107 -56 0 -10 -157 -19 -350 -19 l-185 0 -107 52
c-60 29 -108 56 -108 60 0 5 64 9 143 9 78 1 192 4 252 8 61 3 117 4 126 1 9
-3 64 -27 122 -55z m-5365 -127 l3 -38 -165 0 c-175 0 -173 -1 -160 47 5 19
14 23 73 26 36 2 107 3 156 3 l90 -1 3 -37z m1124 5 c2 -34 -4 -78 -13 -87
-14 -15 -10 -39 10 -65 11 -14 16 -33 13 -49 l-5 -25 -276 6 c-152 4 -354 7
-448 7 l-173 0 0 64 c0 101 -7 96 140 96 107 0 129 -3 134 -16 7 -19 62 -16
59 4 -2 8 12 12 42 13 25 1 54 3 65 4 11 1 27 3 35 4 10 1 15 12 15 31 l0 30
200 0 c183 0 200 -1 202 -17z m3787 -71 c47 -26 86 -52 88 -58 6 -18 -82 -24
-342 -24 l-240 0 -67 48 c-37 26 -68 53 -68 60 0 9 39 12 158 13 86 1 191 5
232 9 111 11 146 4 239 -48z m-2483 -97 c35 -31 64 -60 64 -64 0 -11 -566 -24
-584 -14 -17 10 -96 109 -96 121 0 6 118 10 276 11 l276 2 64 -56z m1922 -42
c15 -10 57 -37 94 -58 37 -22 68 -43 68 -47 0 -5 -78 -9 -172 -9 -95 -1 -225
-2 -288 -2 l-115 -1 -85 50 c-128 75 -123 83 57 87 81 2 208 3 281 2 114 -2
138 -5 160 -22z m-645 -4 c23 -12 78 -46 121 -76 43 -30 84 -52 91 -50 6 3 21
-1 34 -7 19 -11 -10 -14 -175 -19 -108 -4 -256 -7 -328 -7 l-131 0 -57 43
c-89 67 -118 96 -118 117 0 19 7 20 260 20 246 0 263 -1 303 -21z m-1893 -33
c0 -20 39 -90 59 -106 7 -6 54 -68 65 -88 6 -10 -56 -12 -309 -10 l-316 3 -29
72 c-15 40 -31 84 -34 98 l-6 25 271 0 c240 0 270 2 259 15 -11 13 -8 15 14
15 21 0 26 -5 26 -24z m-642 -2 c12 -8 22 -23 22 -33 0 -10 7 -25 16 -32 15
-12 13 -14 -11 -21 -29 -7 -404 -2 -412 6 -8 8 -22 80 -17 88 3 4 89 8 192 8
154 0 192 -3 210 -16z m-2318 -39 c14 -17 5 -89 -10 -80 -6 3 -7 -1 -4 -10 4
-9 -2 -23 -15 -35 -12 -10 -22 -22 -23 -27 0 -4 -8 -19 -18 -32 l-17 -25 -8
25 c-4 13 -13 27 -19 31 -6 4 -138 8 -293 8 -156 0 -283 3 -283 8 0 4 21 33
48 66 26 32 51 65 57 72 15 21 567 20 585 -1z m6362 -34 c37 -21 97 -54 135
-72 l68 -34 -95 -6 c-52 -4 -204 -7 -337 -8 l-242 -1 -68 46 c-75 51 -113 83
-113 96 0 4 84 9 188 11 103 1 234 3 292 5 l105 2 67 -39z m-5042 -1 c0 -5 7
-7 15 -4 8 4 15 1 15 -5 0 -8 84 -11 289 -11 l288 0 6 -55 c3 -30 8 -59 12
-65 4 -6 84 -10 219 -10 l212 0 10 -39 c9 -31 8 -40 -5 -48 -22 -14 -5 -31 37
-39 20 -4 40 -12 45 -18 5 -8 10 -6 17 4 8 13 10 12 10 -4 0 -20 0 -20 15 0 8
11 15 14 15 7 0 -7 7 -13 15 -13 8 0 21 -13 29 -29 l15 -29 -37 -6 c-20 -3
-159 -6 -308 -6 l-271 0 -7 38 c-3 20 -6 65 -6 100 l0 63 -297 -1 c-164 0
-311 0 -327 0 l-28 0 4 70 c2 46 0 69 -7 67 -5 -2 -9 -17 -7 -34 2 -17 -3 -35
-11 -42 -13 -10 -16 -4 -19 44 -2 43 1 59 12 66 20 11 50 11 50 -1z m3097
-102 c42 -35 78 -69 81 -75 3 -10 -63 -13 -305 -14 -169 -1 -315 0 -323 1 -8
1 -20 9 -27 18 -7 10 -13 12 -13 7 0 -6 15 -28 34 -50 19 -22 33 -42 31 -45
-2 -3 -148 -5 -326 -5 l-323 0 -58 80 c-31 44 -56 84 -55 88 1 4 140 10 307
11 l305 4 39 -37 39 -36 -37 50 -38 50 179 5 c98 3 231 7 295 8 l117 2 78 -62z
m-3782 12 c-4 -24 -15 -60 -25 -82 l-17 -38 -331 -6 c-257 -5 -332 -4 -332 6
0 7 19 43 42 81 36 57 48 69 73 71 16 2 158 5 314 7 l283 4 -7 -43z m-2243
-107 c4 -53 -2 -57 -72 -51 -41 4 -48 3 -39 -8 9 -11 7 -14 -7 -15 -11 0 -40
-1 -66 -2 -34 -2 -48 1 -48 10 0 7 8 14 18 14 9 1 4 5 -13 9 l-30 7 30 8 c16
5 38 17 49 27 11 10 26 18 33 18 7 0 10 6 7 15 -5 11 2 15 26 15 24 0 31 -4
26 -15 -4 -10 0 -14 14 -12 27 4 37 17 14 18 -18 0 -18 1 1 8 37 15 53 2 57
-46z m2883 -20 c-4 -32 -8 -72 -11 -89 l-4 -31 -338 -6 c-189 -3 -341 -1 -346
4 -6 5 3 39 21 86 l30 78 149 5 c82 3 229 7 327 8 l177 2 -5 -57z m-3855 22
c96 -3 221 -6 277 -7 69 0 101 -4 96 -11 -4 -6 0 -8 9 -4 15 5 48 -20 48 -37
0 -3 -19 -27 -42 -52 -34 -37 -46 -44 -67 -39 -21 4 -38 -4 -81 -40 -51 -42
-56 -44 -68 -28 -12 16 -44 18 -365 23 l-352 5 133 94 c72 52 132 98 132 101
0 4 24 5 53 4 28 -2 131 -6 227 -9z m8453 -18 c120 -71 207 -129 207 -137 0
-6 -49 -10 -118 -10 -66 0 -213 -3 -328 -6 l-209 -6 -63 42 c-76 52 -137 108
-127 118 3 4 138 9 298 12 161 3 294 7 297 8 3 1 22 -8 43 -21z m-6045 -45 c7
-5 13 -34 15 -72 l2 -63 337 6 c251 5 338 3 340 -5 3 -7 -14 -65 -36 -130 -39
-114 -41 -117 -54 -93 l-13 26 -355 -7 -354 -7 0 26 c0 15 -4 27 -10 27 -5 0
-10 15 -10 34 0 19 -4 46 -10 61 l-10 25 -294 -2 c-271 -3 -328 1 -300 20 5 4
27 30 49 57 21 28 50 62 63 77 l25 27 301 0 c166 0 307 -3 314 -7z m5557 -145
c50 -34 89 -67 88 -72 -3 -13 -192 -21 -813 -34 l-505 -11 -48 52 c-27 29 -57
65 -67 79 l-19 26 137 7 c75 3 321 6 546 6 225 0 411 2 414 5 3 3 44 5 91 5
l86 -1 90 -62z m-3442 -29 c8 -46 14 -85 12 -88 -2 -3 -155 -5 -342 -5 l-338
0 2 25 c1 14 4 51 8 82 l6 58 197 3 c108 1 252 3 318 5 l122 2 15 -82z m1354
40 c21 -23 133 -194 133 -203 0 -7 -601 -6 -638 1 -28 6 -34 15 -66 95 -57
142 -84 129 257 129 292 0 294 0 314 -22z m738 -53 c28 -36 51 -71 53 -78 4
-18 -126 -27 -395 -27 l-203 0 -49 68 c-28 37 -50 72 -51 79 0 18 32 20 325
21 l270 1 50 -64z m-1354 -188 c27 -60 49 -111 49 -113 0 -2 -158 -3 -352 -2
l-352 3 -17 90 c-23 113 -23 123 -2 127 9 2 154 3 321 3 l304 0 49 -108z
m-1447 64 c4 -5 1 -51 -6 -103 l-12 -93 -372 -2 -372 -2 8 27 c5 15 21 60 36
99 l27 73 261 3 c143 1 298 3 343 5 45 1 84 -2 87 -7z m-1590 -77 c-1 -17 -8
-46 -17 -65 -34 -78 -47 -122 -41 -141 6 -21 -23 -98 -38 -98 -4 0 -13 20 -20
45 -7 25 -19 46 -27 48 -9 2 -154 1 -323 -1 -168 -3 -314 -2 -323 1 -22 9 -21
12 118 179 l48 58 262 3 c401 4 362 7 361 -29z m4607 -26 c142 -173 159 -197
152 -201 -5 -3 -168 -6 -363 -8 l-355 -4 -78 115 c-43 63 -76 122 -75 130 3
13 40 16 238 20 129 3 279 7 332 8 l97 2 52 -62z m-2267 -70 c11 -50 36 -185
36 -191 0 -4 -176 -7 -391 -7 l-391 0 5 23 c4 12 9 59 13 104 l7 82 131 3 c72
2 233 4 358 6 l227 3 5 -23z m-1558 -82 c3 -8 -11 -61 -30 -118 -20 -58 -36
-117 -36 -131 0 -31 -8 -34 -24 -11 -11 14 -45 14 -346 4 -184 -6 -370 -10
-413 -8 l-77 3 71 115 c39 63 77 122 85 130 12 12 63 16 287 20 150 3 318 7
375 8 80 2 104 -1 108 -12z m5937 -29 c29 -8 93 -18 142 -21 104 -7 275 -45
275 -62 0 -14 -178 -24 -421 -24 -197 0 -185 -5 -198 75 l-7 40 79 3 c47 2
100 -3 130 -11z m-1097 -97 c49 -45 90 -84 92 -89 4 -11 -229 -21 -493 -21
-163 0 -224 -3 -234 -12 -10 -11 -30 5 -103 81 -51 53 -86 97 -81 102 5 5 139
10 298 12 160 1 322 3 361 5 l70 2 90 -80z m-1600 -52 c37 -57 73 -113 82
-125 l14 -23 -374 0 -375 0 -21 48 c-59 135 -72 166 -72 178 0 11 56 14 308
17 169 1 321 3 339 5 30 2 35 -4 99 -100z m2408 40 c-3 -18 -7 -39 -10 -45 -2
-10 -71 -13 -297 -13 -315 0 -308 -1 -321 52 l-6 28 162 3 c90 1 234 4 320 5
l158 2 -6 -32z m-4879 5 c14 -13 16 -27 11 -67 -4 -28 -9 -80 -12 -116 -8
-103 -12 -114 -31 -98 -13 10 -89 12 -394 9 -207 -2 -382 -1 -387 3 -5 3 9 61
34 133 24 70 44 129 44 130 0 2 87 4 193 4 165 1 478 12 514 17 6 1 19 -6 28
-15z m-3215 -106 c0 -2 -42 -46 -92 -98 -51 -52 -115 -119 -143 -149 l-50 -55
-365 5 c-201 3 -315 7 -255 9 73 2 102 6 85 11 -14 4 -18 9 -10 9 12 1 12 3 2
10 -11 7 -11 9 2 14 9 4 16 16 16 27 0 11 6 23 13 26 8 3 11 18 9 44 -3 23 0
40 6 40 10 0 42 55 42 69 -1 3 -9 -4 -20 -17 -10 -12 -21 -18 -24 -13 -3 5 7
23 22 39 l27 31 368 1 c202 0 367 -1 367 -3z m1487 -53 c3 -9 1 -24 -5 -33 -6
-9 -45 -77 -87 -151 l-75 -136 -122 -1 c-68 -1 -262 -5 -432 -9 l-309 -7 27
34 c15 19 72 91 127 161 55 70 105 130 110 134 6 3 139 8 297 11 158 3 289 7
291 9 2 2 42 4 88 4 68 0 85 -3 90 -16z m3499 -209 c35 -88 63 -166 63 -172 1
-10 -94 -13 -442 -13 l-444 0 -21 166 c-12 92 -19 171 -16 175 3 5 180 8 402
7 l396 -3 62 -160z m1633 20 c24 -39 48 -65 59 -65 13 0 14 -2 4 -9 -10 -6 -8
-10 11 -15 28 -7 170 -153 161 -167 -3 -5 -172 -9 -389 -9 l-385 0 -13 23 c-8
12 -51 79 -95 149 -45 70 -82 132 -82 137 0 7 99 12 283 14 155 1 309 3 343 5
l61 2 42 -65z m1131 -34 c95 -93 118 -107 190 -120 113 -20 120 -22 114 -32
-3 -5 -38 -9 -78 -9 -64 0 -74 -2 -72 -17 1 -16 -15 -19 -159 -24 -88 -4 -282
-7 -432 -8 l-272 -1 -12 23 c-7 12 -37 54 -68 92 -77 95 -104 135 -98 142 6 6
629 22 752 19 l71 -1 64 -64z m-3776 -253 c3 -50 6 -119 6 -153 l0 -62 -212
-6 c-375 -12 -638 -9 -644 7 -5 13 22 265 31 294 3 9 94 12 408 12 l404 0 7
-92z m-1810 73 c9 -13 -18 -122 -57 -231 -19 -52 -37 -113 -41 -135 l-8 -39
-18 23 c-20 28 33 27 -509 10 -184 -5 -336 -7 -339 -5 -2 3 45 78 105 168 60
90 114 171 119 180 8 15 39 18 244 26 330 13 498 14 504 3z m4689 -198 c-15
-5 -18 -69 -4 -77 5 -4 20 -27 32 -54 13 -26 27 -51 31 -57 35 -43 49 -54 98
-74 53 -23 62 -24 233 -18 98 4 182 9 187 12 9 6 160 -132 160 -146 0 -5 -203
-8 -497 -7 -489 3 -498 3 -508 23 -14 28 -96 160 -172 278 -35 53 -63 104 -63
112 0 13 36 15 258 14 141 0 251 -3 245 -6z m-6539 -71 c3 -5 -28 -56 -70
-113 -41 -57 -103 -144 -137 -192 -34 -49 -69 -98 -77 -108 -14 -19 -33 -20
-477 -22 -253 -1 -465 2 -469 6 -12 11 12 45 91 130 39 41 117 125 174 186
l103 111 347 3 c190 1 383 3 428 5 45 1 84 -2 87 -6z m2709 -34 c2 -7 -10 -98
-28 -203 l-32 -190 -89 -2 c-308 -9 -920 -21 -922 -18 -2 2 22 65 54 141 31
77 66 167 78 201 l22 62 395 6 c217 4 396 9 398 11 11 10 119 3 124 -8z m2005
-83 c14 -44 29 -99 36 -122 7 -28 16 -43 27 -43 27 0 31 -13 9 -30 -19 -15
-20 -18 -6 -63 8 -26 11 -49 8 -51 -4 -2 -226 -1 -494 2 -440 4 -488 6 -489
21 0 9 -6 93 -13 186 -7 94 -11 173 -9 178 2 4 207 6 456 5 l451 -3 24 -80z
m1294 0 c27 -44 52 -87 58 -95 45 -71 81 -144 78 -158 -3 -16 -38 -17 -464
-20 l-462 -2 -20 52 c-103 267 -109 284 -99 296 7 9 102 12 435 10 l426 -3 48
-80z m-2264 -511 c6 -108 14 -199 16 -202 3 -2 193 -4 423 -3 230 1 424 -2
431 -7 7 -5 18 -28 25 -53 10 -34 18 -44 34 -44 12 0 25 -3 29 -7 13 -14 26
-9 20 7 -3 9 0 15 8 15 16 0 29 27 20 42 -3 5 1 17 9 26 10 12 17 56 22 152 4
74 8 144 10 155 1 11 3 26 4 33 1 15 286 18 295 3 4 -5 2 -11 -3 -13 -6 -2 -7
-25 -2 -60 4 -32 4 -64 -2 -73 -17 -31 2 -87 44 -125 21 -19 39 -39 39 -43 0
-16 73 -77 92 -77 11 0 17 -4 13 -9 -7 -12 22 -41 42 -41 9 0 14 -2 11 -5 -2
-3 -153 -8 -334 -11 -181 -4 -330 -8 -332 -9 -2 -2 24 -135 56 -296 33 -162
57 -297 53 -301 -4 -4 -221 -11 -484 -14 -406 -6 -477 -5 -481 7 -4 12 -36
582 -36 633 0 18 -15 18 -496 14 -272 -2 -497 -1 -500 3 -3 5 2 61 10 126 9
65 22 171 30 236 9 65 18 123 21 128 4 5 187 9 454 9 l448 0 11 -196z m2516
104 c64 -120 169 -300 197 -340 43 -60 56 -58 -471 -58 l-481 0 -14 33 c-20
49 -105 296 -120 350 -10 36 -11 49 -2 53 12 4 181 7 643 12 l220 2 28 -52z
m-6787 -65 c3 -7 -40 -77 -95 -155 -186 -269 -214 -304 -230 -294 -8 5 6 32
41 84 28 42 58 81 65 85 6 4 12 14 12 21 0 7 11 26 26 42 33 38 144 203 144
214 0 5 -6 7 -14 4 -8 -3 -16 -2 -19 3 -3 5 11 8 31 8 19 0 37 -6 39 -12z
m2010 -288 c3 -9 -16 -71 -42 -138 -26 -67 -62 -160 -80 -207 l-33 -85 -79 -2
c-43 -1 -206 -6 -363 -12 -157 -6 -382 -13 -500 -16 l-215 -6 -3 -43 -3 -43
-137 -6 c-270 -13 -818 -29 -866 -25 l-48 3 79 105 c74 97 239 319 273 367 15
20 27 21 405 32 528 16 524 16 540 39 13 18 35 19 367 27 194 4 409 11 478 14
212 13 220 13 227 -4z m6317 -88 c17 -19 68 -85 112 -148 45 -63 118 -163 163
-223 45 -61 81 -116 81 -123 0 -10 -24 -13 -92 -14 -51 0 -273 -4 -493 -8
-392 -8 -400 -8 -418 12 -17 19 -92 145 -154 257 -17 30 -52 93 -77 139 -26
46 -46 91 -44 100 4 18 -18 17 508 30 179 4 338 9 354 9 21 2 37 -7 60 -31z
m-1236 -88 c76 -124 145 -225 175 -257 23 -23 28 -35 20 -43 -8 -8 -7 -20 3
-44 18 -43 9 -68 -20 -59 -32 10 -49 28 -90 97 -20 34 -71 115 -112 181 -63
98 -74 123 -69 146 6 25 17 34 48 39 4 0 25 -26 45 -60z m328 -549 c28 -47 89
-159 136 -250 47 -91 103 -198 124 -238 31 -57 36 -74 26 -81 -8 -4 -167 -11
-355 -15 -188 -3 -432 -9 -542 -12 -110 -3 -205 -1 -211 3 -19 13 -46 75 -159
360 -59 150 -105 279 -102 288 5 11 24 15 84 16 43 1 245 5 448 9 204 3 399 6
435 6 l65 -1 51 -85z m-4298 -82 c7 -9 1 -89 -20 -258 -16 -135 -31 -255 -34
-267 -4 -19 -12 -22 -96 -27 -171 -11 -481 -26 -743 -36 -143 -6 -284 -12
-313 -13 -50 -4 -53 -2 -49 17 15 64 161 533 169 544 7 8 38 12 87 12 77 0
470 15 751 29 233 12 237 12 248 -1z m-1231 -60 c6 -7 13 -33 16 -57 4 -35 -6
-81 -58 -245 -84 -270 -193 -637 -209 -707 -5 -25 -9 -26 -49 -22 -24 3 -136
0 -248 -6 -112 -6 -341 -16 -509 -21 -255 -9 -306 -8 -318 4 -12 11 -5 31 43
132 32 66 75 160 97 209 50 113 106 237 173 385 28 63 69 155 90 204 26 58 46
91 60 96 11 4 79 8 150 9 184 2 719 21 724 27 8 8 29 4 38 -8z m-1359 -42 c7
-4 12 -11 12 -15 0 -5 -42 -96 -94 -204 -83 -171 -136 -307 -136 -347 0 -11
-50 -144 -85 -225 -7 -16 -21 -51 -30 -76 -9 -25 -25 -59 -36 -75 l-19 -29 0
26 c0 27 22 84 94 249 46 104 57 159 34 161 -42 3 -281 -4 -598 -16 -201 -8
-396 -16 -434 -17 -49 -2 -71 1 -74 10 -2 7 28 58 67 113 39 55 76 110 82 122
7 12 15 24 18 27 3 3 46 65 95 138 l89 132 65 0 c73 0 833 29 872 33 35 4 65
1 78 -7z m4884 -478 c9 -8 29 -76 51 -173 20 -88 50 -223 68 -300 45 -198 51
-237 42 -245 -15 -15 -1166 -41 -1179 -27 -5 4 -14 110 -21 235 -6 125 -17
283 -23 351 -7 91 -7 127 1 137 9 11 62 14 248 15 218 2 746 13 782 17 8 1 22
-4 31 -10z m3611 -879 c29 -24 37 -37 35 -58 -3 -23 -8 -27 -53 -32 -68 -9
-93 -2 -110 32 -21 40 -19 46 23 68 50 27 61 26 105 -10z"/>
<path d="M2756 5895 c-20 -52 4 -65 128 -65 l58 0 -4 -35 c-4 -35 -3 -36 25
-33 24 2 32 10 41 38 8 24 18 36 34 38 16 2 22 10 22 27 0 13 -3 26 -7 28 -5
3 -71 8 -149 12 -127 6 -142 5 -148 -10z"/>
<path d="M993 5603 c-165 -3 -192 -6 -197 -20 -4 -9 -5 -17 -3 -19 2 -2 126
-5 277 -6 255 -3 277 -2 303 16 15 10 27 22 27 27 0 5 -48 8 -107 7 -60 -2
-194 -4 -300 -5z"/>
</g>
</svg>
